<svg width="74" height="74" viewBox="0 0 74 74" fill="none" xmlns="http://www.w3.org/2000/svg">
<path d="M36.9996 72.9993C56.8817 72.9993 72.9993 56.8817 72.9993 36.9996C72.9993 17.1176 56.8817 1 36.9996 1C17.1176 1 1 17.1176 1 36.9996C1 56.8817 17.1176 72.9993 36.9996 72.9993Z" fill="#F9F8F7" stroke="#0B25DC" stroke-width="0.4" stroke-miterlimit="10"/>
<path d="M37.0008 64.855C52.3853 64.855 64.857 52.3834 64.857 36.9988C64.857 21.6142 52.3853 9.14258 37.0008 9.14258C21.6162 9.14258 9.14453 21.6142 9.14453 36.9988C9.14453 52.3834 21.6162 64.855 37.0008 64.855Z" fill="#F9F8F7" stroke="#0B25DC" stroke-width="0.4" stroke-miterlimit="10"/>
<path d="M40.9782 54.4585C40.9782 54.4453 41.189 53.0486 40.9848 51.5069C40.6488 48.9307 39.4694 47.7712 38.5602 47.2836C35.4966 45.6431 33.8231 42.3488 33.6913 42.0853C31.9783 42.8364 30.0347 43.1131 27.7551 42.922C25.4161 42.7244 22.7083 42.0392 19.4601 40.8269C16.9301 39.8847 14.7493 38.8174 12.8255 37.8818C9.82112 36.4192 7.65351 35.365 6.17768 35.7405C5.37388 35.9448 4.84679 36.3269 4.6162 36.8738C4.28677 37.6578 4.53714 38.7779 5.40023 40.2932C7.14619 43.37 14.9404 48.3641 20.8437 50.9271C24.0853 52.3304 25.6863 53.5164 26.5428 55.1569C27.3861 56.7777 27.5442 58.9387 27.1094 62.8457C27.4256 62.9643 27.7551 63.0763 28.0779 63.1883C29.5603 63.689 31.0954 64.0646 32.6437 64.3149C33.6452 61.1129 36.9592 57.9965 40.9782 54.4585Z" fill="#0B25DC" stroke="#0B25DC" stroke-width="0.4" stroke-miterlimit="10"/>
<path d="M16.7534 48.9236C14.5199 47.7179 12.2403 46.3145 10.3164 44.9375C11.1927 47.7508 12.5104 50.4455 14.2234 52.8569C15.9166 55.2419 17.9657 57.3371 20.3112 59.0896C22.3207 60.5984 24.798 61.9293 27.1171 62.8451C27.5454 58.9579 27.3872 56.7705 26.5505 55.1563C25.7006 53.5289 24.0864 52.3298 20.8514 50.9265C19.5535 50.3598 18.1502 49.6746 16.7534 48.9236Z" fill="#0B25DC" stroke="#0B25DC" stroke-width="0.4" stroke-miterlimit="10"/>
<path d="M40.1472 55.1829C40.3251 51.2891 37.2615 47.0329 32.6034 49.9846C27.3194 53.3315 18.9915 49.9846 11.7969 45.959C14.6497 47.8565 17.9703 49.6815 20.8495 50.9267C24.091 52.3301 25.692 53.516 26.5486 55.1565C27.3919 56.7773 27.55 58.9383 27.1152 62.8453C27.4314 62.9639 27.7608 63.0759 28.0837 63.1879C29.5661 63.6887 31.1012 64.0642 32.6495 64.3146C33.5324 61.4749 36.741 58.2531 40.1472 55.1829Z" fill="#F9F8F7" stroke="#0B25DC" stroke-width="0.4" stroke-miterlimit="10"/>
<path d="M49.0488 32.901C46.3278 27.7027 43.4091 22.8667 40.4377 18.6237C40.4508 18.6237 40.464 18.6303 40.4772 18.6303L40.4838 18.5908C40.4574 18.5842 40.4311 18.5842 40.4047 18.5776C40.385 18.5512 40.3652 18.5249 40.3454 18.4985C39.4757 18.3931 38.3886 18.3141 37.7232 18.2679C26.9246 17.4641 17.4503 24.0065 16.1261 33.0855C14.3142 32.7693 12.733 32.3805 11.5536 32.005C11.4548 31.972 11.356 31.9391 11.2571 31.9128C7.9563 30.8125 5.25501 31.3264 3.85165 33.3161C3.80553 33.382 3.75941 33.4479 3.71988 33.5138C3.70671 33.5335 3.69353 33.5533 3.68694 33.5731C3.654 33.6258 3.62764 33.6719 3.60129 33.7246C3.58811 33.7444 3.58152 33.7707 3.56834 33.7905C3.5354 33.863 3.50246 33.9288 3.46952 34.0013C3.46952 34.0013 3.46952 34.0079 3.46293 34.0079C3.42999 34.0804 3.40364 34.1594 3.37728 34.2319C3.37069 34.2583 3.3641 34.278 3.35751 34.2978C3.33775 34.3571 3.32457 34.4098 3.3048 34.4691C3.29821 34.4955 3.29163 34.5152 3.28504 34.5416C3.26528 34.614 3.2521 34.6931 3.23233 34.7656C3.23233 34.7722 3.23233 34.7722 3.23233 34.7788C3.21915 34.8578 3.20598 34.9369 3.1928 35.0225C3.18621 35.0489 3.18621 35.0687 3.18621 35.095C3.17963 35.1543 3.17303 35.2136 3.17303 35.2795C3.17303 35.2927 3.16645 35.3124 3.16645 35.3256C3.14668 35.7011 3.17304 36.0833 3.2521 36.4786C3.46952 37.5459 4.03613 38.5276 4.80699 39.1799C4.40509 38.2114 4.33261 37.4471 4.58298 36.8607C4.82016 36.3073 5.34724 35.9186 6.17081 35.7077C7.65981 35.3256 9.83402 36.3864 12.845 37.849C14.7688 38.7846 16.9496 39.8453 19.4796 40.7941C22.7211 42.0064 25.429 42.685 27.7614 42.8826C30.041 43.0737 31.9846 42.8036 33.6976 42.0459L33.7108 42.0393L33.7174 42.0525C33.7306 42.0854 35.3909 45.5839 38.5599 47.2838C39.4757 47.7779 40.6419 48.9045 40.9845 51.5004C41.136 52.6666 41.0174 53.9381 40.9713 54.452C41.4984 53.9909 42.0782 53.4835 42.625 53.0092C43.5211 52.2317 44.4435 51.4213 45.3659 50.5978C48.0869 48.1732 49.8263 45.1227 50.4061 41.7758C50.9332 38.7319 50.4522 35.5826 49.0488 32.901Z" fill="#F9F8F7" stroke="#0B25DC" stroke-width="0.4" stroke-miterlimit="10"/>
<path d="M49.0515 32.902C47.8063 30.517 46.5084 28.2044 45.1906 25.9907L43.8268 25.4175L41.5538 24.8509L41.5077 24.8838L41.5406 24.7389C41.6394 24.337 41.5209 23.9482 41.2771 23.6715C41.1782 23.5595 39.0831 21.998 39.0831 21.998C39.3598 22.2748 39.4982 22.6833 39.3994 23.1115L38.8393 25.4109L38.8591 25.3911L37.179 32.4145C37.0538 32.9284 36.6058 33.3039 36.0722 33.3237L30.1557 33.5016L27.3951 33.6202L22.625 33.719C23.0467 33.7717 24.4961 33.8508 24.8717 33.9562C25.2999 34.0814 26.2684 34.3647 26.7099 34.5557C28.0276 35.1487 28.3438 35.1487 29.9448 35.1487L38.2332 35.1948C38.7669 35.1751 39.2149 34.8061 39.3401 34.2856L39.373 34.1341L43.1416 34.4701L50.5735 38.1531C50.4154 36.3347 49.9014 34.5294 49.0515 32.902Z" fill="#0B25DC" stroke="#0B25DC" stroke-width="0.4" stroke-miterlimit="10"/>
<path d="M65.0773 35.6481C65.0642 35.345 65.051 35.0485 65.0312 34.7455C65.0312 34.7257 65.0312 34.7125 65.0246 34.6928C64.7413 30.5683 63.5488 26.5691 61.5393 22.9718C61.5261 22.9454 61.513 22.9191 61.4998 22.8993C61.3614 22.649 61.2165 22.3986 61.0649 22.1548C61.0452 22.1219 61.0188 22.0823 60.999 22.0494C60.8541 21.8122 60.7092 21.5816 60.5576 21.351C60.5379 21.3247 60.5181 21.2917 60.5049 21.2654C60.3995 21.1007 60.2875 20.9425 60.1755 20.7844C60.0701 20.6329 59.9647 20.4813 59.8592 20.3364C59.7736 20.2178 59.6814 20.0926 59.5957 19.974C59.4969 19.8422 59.398 19.7105 59.2926 19.5721C59.1872 19.4338 59.0884 19.3086 58.983 19.1768C58.8973 19.0714 58.8117 18.966 58.726 18.8606C58.6008 18.709 58.4756 18.5575 58.3505 18.4125C58.2912 18.3466 58.2319 18.2808 58.1792 18.2149C56.8088 16.6468 55.2736 15.2369 53.5936 14.0114C53.5804 13.9982 53.5606 13.9851 53.5474 13.9785C53.33 13.8203 53.0994 13.6622 52.8754 13.5041C52.8293 13.4777 52.7898 13.4448 52.7502 13.4184C52.546 13.2801 52.3352 13.1417 52.1243 13.01C52.0584 12.9638 51.9926 12.9243 51.9201 12.8848C51.729 12.7662 51.5379 12.6476 51.3403 12.5356C51.2481 12.4829 51.1492 12.4236 51.057 12.3709C50.8857 12.272 50.7078 12.1732 50.5299 12.0744C50.4113 12.0085 50.2993 11.9492 50.1807 11.8899C50.0489 11.8174 49.8579 11.7186 49.6207 11.6C49.0804 11.3299 37.8075 5.59788 33.5315 3.89805C31.3112 3.01518 30.3295 2.40904 28.3266 3.09425C24.8281 4.28677 13.2785 20.3891 11.0977 26.1936C11.572 25.146 24.3076 7.03418 27.167 5.32116C27.7337 4.97856 28.6099 5.10374 29.7168 5.95366C31.1465 7.04735 32.7739 8.88555 34.9678 11.5605C35.3302 12.0019 35.6992 12.4499 36.0813 12.9111C37.5242 14.6571 38.9671 16.5612 40.4034 18.6036C40.4297 18.6102 40.4561 18.6102 40.4824 18.6168L40.4758 18.6563C40.4627 18.6563 40.4495 18.6497 40.4363 18.6497C43.4077 22.8927 46.333 27.7287 49.0475 32.927C50.4508 35.6086 50.9318 38.7579 50.4047 41.8018C49.8315 45.1487 48.0856 48.1992 45.3645 50.6238C44.4421 51.4473 43.5131 52.2577 42.6237 53.0352C37.8865 57.1662 33.7753 60.7306 32.6487 64.3279C34.0982 64.5519 35.5872 64.6771 37.0696 64.6771C40.8514 64.6771 44.5212 63.9392 47.9736 62.4765C48.3886 62.2986 48.8037 62.1141 49.2122 61.9165C52.0584 60.5461 54.6345 58.7211 56.8812 56.4678C59.1345 54.2145 60.9595 51.6384 62.3299 48.7988C62.5276 48.3903 62.7121 47.9818 62.89 47.5601C64.3526 44.1077 65.0905 40.4379 65.0905 36.6561C65.0905 36.3531 65.0839 36.0434 65.0773 35.7403C65.0773 35.6876 65.0773 35.6679 65.0773 35.6481Z" fill="#F9F8F7" stroke="#0B25DC" stroke-width="0.4" stroke-miterlimit="10"/>
<path d="M38.0922 21.6611L16.08 24.4415C15.6122 24.5008 15.2169 24.8302 15.0851 25.2848L12.9636 32.3675C12.957 32.3806 12.957 32.3938 12.957 32.407C15.4541 33.0527 18.9592 33.6456 22.6619 33.7115L22.5631 33.7181L27.3925 33.6259L30.153 33.5073L36.0695 33.3294C36.6032 33.3096 37.0512 32.9407 37.1764 32.4202L38.8565 25.3968L38.8367 25.4166L39.3967 23.1172C39.5878 22.3134 38.9158 21.5623 38.0922 21.6611Z" fill="#F9F8F7" stroke="#0B25DC" stroke-width="0.4" stroke-miterlimit="10"/>
<path d="M46.4333 31.6164C48.4032 38.6859 47.9882 46.2297 42.7503 52.8512C43.1127 52.535 43.475 52.2451 43.8374 51.9486C44.3447 51.5005 44.8586 51.0525 45.3725 50.5913C48.0936 48.1668 49.8329 45.1163 50.4127 41.7693C50.9398 38.7254 50.4523 35.5761 49.0555 32.8946C46.3344 27.6963 43.4157 22.8603 40.4443 18.6173C40.4575 18.6173 40.4707 18.6239 40.4838 18.6239L40.4904 18.5843C40.4641 18.5778 40.4377 18.5778 40.4114 18.5712C40.3784 18.525 40.3455 18.4789 40.3125 18.4328C39.3111 18.3537 38.2306 18.2945 37.7233 18.2549C36.1288 18.1363 34.5674 18.1759 33.0586 18.3603C39.9699 20.2842 44.6807 25.3376 46.4333 31.6164Z" fill="#0B25DC" stroke="#0B25DC" stroke-width="0.4" stroke-miterlimit="10"/>
<path d="M12.9646 32.3746L15.0861 25.2919C15.2178 24.8373 15.6066 24.5013 16.0809 24.4486L21.0948 23.8161C25.1467 19.9948 31.195 17.7876 37.7242 18.2752C38.383 18.3213 39.4636 18.4004 40.3332 18.5058C40.3332 18.4992 40.3267 18.4926 40.3267 18.4794C40.3267 18.4728 40.3201 18.4728 40.3201 18.4728C39.6151 17.478 38.9101 16.5095 38.2052 15.5805C38.1854 15.5541 38.1722 15.5344 38.1524 15.5146C37.9943 15.3038 37.8362 15.0995 37.6781 14.8953C37.6385 14.8426 37.599 14.7964 37.5661 14.7503C37.4277 14.5724 37.2894 14.3945 37.151 14.2167C37.0719 14.1112 36.9863 14.0124 36.9006 13.907C36.8084 13.7884 36.7096 13.6698 36.6173 13.5512C36.4394 13.3338 36.2615 13.1098 36.0837 12.899C35.8926 12.6684 35.7081 12.4443 35.517 12.2137C35.326 11.9831 35.1481 11.7657 34.9702 11.5417C34.1466 10.5337 33.4021 9.65081 32.7169 8.87996C32.4929 8.62301 32.2689 8.37923 32.0515 8.14204C31.1884 7.21306 30.4307 6.48174 29.7126 5.92831C29.6269 5.86242 29.5413 5.80312 29.4622 5.74383C29.4358 5.73065 29.4161 5.71088 29.3897 5.69771C29.3238 5.65159 29.258 5.61206 29.1987 5.57252C29.1789 5.55935 29.1657 5.54617 29.146 5.53958C29.0669 5.49346 28.9878 5.44734 28.9088 5.40781C28.8956 5.40122 28.8824 5.39463 28.8692 5.38805C28.8033 5.3551 28.7375 5.32875 28.6782 5.3024C28.6584 5.29581 28.6452 5.28922 28.6255 5.28263C28.553 5.25628 28.4871 5.22992 28.4146 5.21016C28.4146 5.21016 28.4146 5.21016 28.408 5.21016C28.3356 5.19039 28.2631 5.17063 28.1972 5.15745C28.184 5.15745 28.1709 5.15086 28.1577 5.15086C28.0984 5.13768 28.0457 5.13109 27.9864 5.12451C27.9732 5.12451 27.9666 5.12451 27.9534 5.11792C27.8875 5.11133 27.8217 5.11133 27.7624 5.11133C27.7426 5.11133 27.7228 5.11792 27.6965 5.11792C27.6174 5.12451 27.5449 5.13768 27.4725 5.15745C27.4659 5.15745 27.4659 5.15745 27.4659 5.15745C27.3934 5.17721 27.3275 5.20357 27.2616 5.22992C27.2287 5.2431 27.1892 5.26287 27.1562 5.28263C24.2968 6.99565 11.5612 25.1075 11.0868 26.155C11.1988 25.8651 11.3306 25.5423 11.4887 25.2063C11.4163 25.3512 11.3504 25.4896 11.2845 25.628C11.2186 25.7597 11.1527 25.8915 11.0934 26.0299C11.0671 26.0826 11.0407 26.1419 11.0144 26.2077C10.9946 26.2605 10.9682 26.3132 10.9485 26.3659V26.3725C10.6849 27.0181 10.3753 27.9405 10.1052 28.9156C9.85479 29.7853 9.63078 30.6945 9.47266 31.4588C10.0393 31.551 10.6322 31.7026 11.2516 31.9068C11.7457 32.0715 12.3189 32.2362 12.9514 32.4009C12.958 32.3944 12.9646 32.3812 12.9646 32.3746Z" fill="#0B25DC" stroke="#0B25DC" stroke-width="0.4" stroke-miterlimit="10"/>
<path d="M36.0046 22.6621L17.1022 24.7638L15.119 26.5362L13.4258 32.5251C13.7025 32.591 13.9924 32.6569 14.2955 32.7228L15.7581 27.5442L17.7413 25.7719L36.6437 23.6702L37.9087 24.7045L38.0141 24.2961L36.0046 22.6621Z" fill="#0B25DC" stroke="#0B25DC" stroke-width="0.4" stroke-miterlimit="10"/>
<path d="M36.6451 23.6777L17.7427 25.7795L15.7595 27.5518L14.2969 32.7304C15.015 32.8885 15.7925 33.0334 16.616 33.1718L20.2134 33.0334L34.326 32.4207L36.3157 31.0371L37.9167 24.7187L36.6451 23.6777Z" fill="#F9F8F7" stroke="#0B25DC" stroke-width="0.4" stroke-miterlimit="10"/>
<path d="M26.7217 34.3453C24.0402 33.3899 17.3726 34.1674 11.5352 32.0195" stroke="#0B25DC" stroke-width="0.4" stroke-miterlimit="10"/>
</svg>
