<svg width="52" height="73" viewBox="0 0 52 73" fill="none" xmlns="http://www.w3.org/2000/svg">
<path d="M43.8485 68.5712C43.8485 70.9058 35.8231 72.8514 25.9008 72.8514C15.9785 72.8514 7.95312 70.9545 7.95312 68.5712C7.95312 66.2365 15.9785 64.291 25.9008 64.291C35.8231 64.3397 43.8485 66.2365 43.8485 68.5712Z" fill="#0B25DC"/>
<path d="M26.0394 0.623047C12.226 0.623047 1.03906 11.81 1.03906 25.6234C1.03906 30.5359 2.4496 35.1079 4.88153 38.999L26.0394 68.8632L47.3917 38.999C49.8723 35.1566 51.2828 30.5359 51.2828 25.6234C51.2828 11.81 39.9501 0.623047 26.0394 0.623047Z" fill="#F9F8F7"/>
<path d="M26.0404 0.6221V0.378906C12.0811 0.378906 0.796875 11.6631 0.796875 25.6224C0.796875 30.5836 2.2074 35.2042 4.68797 39.0953L26.0404 69.2513L47.5873 39.0953C50.0679 35.2042 51.527 30.5836 51.527 25.6224C51.527 18.6671 48.6574 12.344 44.0853 7.77197C39.4647 3.19993 33.093 0.378906 26.089 0.378906V0.6221V0.865294C32.9957 0.865294 39.2214 3.63771 43.7448 8.11248C48.2682 12.5872 51.0406 18.7644 51.0406 25.6224C51.0406 30.4863 49.6302 35.0097 47.1982 38.8521L47.3927 38.9981L47.1982 38.8521L26.0404 68.4731L5.07705 38.8521L4.88254 38.9981L5.07705 38.8521C2.64511 35.0097 1.23464 30.4863 1.23464 25.6224C1.23464 18.7644 4.00699 12.5872 8.48176 8.11248C12.9565 3.63771 19.1336 0.865294 25.9917 0.865294V0.6221H26.0404Z" fill="#0B25DC"/>
<path d="M43.5041 25.6232C43.5041 35.0591 35.8679 42.6467 26.4806 42.6467C17.0447 42.6467 9.45703 35.0104 9.45703 25.6232C9.45703 16.2359 17.0933 8.59961 26.4806 8.59961C35.9165 8.59961 43.5041 16.2359 43.5041 25.6232Z" fill="#0B25DC"/>
<path d="M31.3428 32.6754C31.3428 32.8699 31.2942 33.0645 31.1483 33.1618C31.0024 33.3077 30.8564 33.3563 30.6619 33.3563H22.2474C22.0528 33.3563 21.8583 33.3077 21.761 33.1618C21.6151 33.0158 21.5664 32.8699 21.5664 32.6754V31.7512C21.5664 31.5567 21.6151 31.3621 21.761 31.2648C21.9069 31.1189 22.0528 31.0703 22.2474 31.0703H25.7493V24.0663H23.1715C22.977 24.0663 22.831 24.0177 22.6851 23.8718C22.5392 23.7259 22.4906 23.5799 22.4906 23.3854V22.4612C22.4906 22.2667 22.5392 22.1208 22.6851 21.9749C22.831 21.8289 22.977 21.7803 23.1715 21.7803H27.4031C27.5976 21.7803 27.7435 21.8289 27.8894 21.9749C28.0354 22.1208 28.084 22.2667 28.084 22.4612V31.1189H30.6619C30.8564 31.1189 31.0024 31.1676 31.1483 31.3135C31.2942 31.4594 31.3428 31.6053 31.3428 31.7999V32.6754ZM28.2786 19.5915C28.2786 19.7861 28.2299 19.9807 28.084 20.0779C27.9381 20.2239 27.7922 20.2725 27.5976 20.2725H25.7493C25.5548 20.2725 25.3602 20.2239 25.2629 20.0779C25.117 19.932 25.0684 19.7861 25.0684 19.5915V17.6946C25.0684 17.5001 25.117 17.3542 25.2629 17.2082C25.4089 17.0623 25.5548 17.0137 25.7493 17.0137H27.5976C27.7922 17.0137 27.9381 17.0623 28.084 17.2082C28.2299 17.3542 28.2786 17.5001 28.2786 17.6946V19.5915Z" fill="#F9F8F7"/>
<path d="M31.3447 32.6754H30.9556C30.9556 32.8214 30.9069 32.8214 30.8583 32.9186C30.8096 32.9673 30.761 33.0159 30.6638 33.0159H22.2492C22.1033 33.0159 22.1033 32.9673 22.006 32.9186C21.9574 32.87 21.9088 32.8214 21.9088 32.6754V31.7513C21.9088 31.6054 21.9574 31.6054 22.006 31.5081C22.0547 31.4595 22.1033 31.4108 22.2492 31.4108H26.1403V23.6286H23.1734C23.0761 23.6286 23.0275 23.6286 22.9788 23.5313C22.9302 23.4341 22.8816 23.434 22.8816 23.3368V22.4127C22.8816 22.3154 22.8815 22.2668 22.9788 22.2181C23.0761 22.1695 23.1247 22.1208 23.222 22.1208H27.4536C27.5508 22.1208 27.5995 22.1208 27.6967 22.2181C27.7454 22.2668 27.7941 22.3154 27.7941 22.4127V31.4595H30.761C30.8583 31.4595 30.9069 31.4594 30.9556 31.5567C31.0042 31.6054 31.0528 31.654 31.0528 31.7999V32.7241H31.3447H31.7338V31.7999C31.7338 31.5081 31.6365 31.2163 31.442 31.0217C31.2474 30.8272 30.9556 30.6813 30.6638 30.7299H28.475V22.4613C28.475 22.1695 28.3777 21.8777 28.1345 21.6831C27.94 21.4885 27.6481 21.3912 27.3563 21.3912H23.1248C22.8329 21.3912 22.541 21.4885 22.3465 21.6831C22.1519 21.8777 22.006 22.1695 22.006 22.4613V23.3855C22.006 23.6773 22.1033 23.9691 22.3465 24.1637C22.541 24.3582 22.8329 24.5041 23.1248 24.5041H25.3135V30.7299H22.2006C21.9088 30.7299 21.617 30.8272 21.4224 31.0217C21.2278 31.2163 21.0819 31.5081 21.1305 31.7999V32.7241C21.1305 33.0159 21.2278 33.3077 21.4224 33.5023C21.617 33.6968 21.9088 33.8427 22.2006 33.7941H30.6151C30.9069 33.7941 31.1988 33.6968 31.3933 33.5023C31.5879 33.3077 31.7338 33.0159 31.6852 32.7241H31.3447V32.6754ZM28.2804 19.5916H27.8913C27.8913 19.6889 27.8427 19.7375 27.7941 19.8348C27.7454 19.8834 27.6968 19.9321 27.5995 19.9321H25.7512C25.6539 19.9321 25.6053 19.8834 25.508 19.8348C25.4594 19.7862 25.4108 19.7375 25.4108 19.5916V17.6947C25.4108 17.5974 25.4107 17.5488 25.508 17.5001C25.5566 17.4515 25.6053 17.4029 25.7512 17.4029H27.5995C27.6968 17.4029 27.7454 17.4028 27.7941 17.5001C27.8427 17.5488 27.8913 17.5974 27.8913 17.6947V19.5916H28.2804H28.6695V17.6947C28.6695 17.4029 28.5723 17.111 28.3777 16.9165C28.1831 16.7219 27.8913 16.576 27.5995 16.6247H25.7512C25.4594 16.6247 25.1675 16.7219 24.973 16.9165C24.7784 17.111 24.6325 17.4029 24.6812 17.6947V19.5916C24.6812 19.8834 24.7784 20.1753 24.973 20.3698C25.1675 20.5644 25.4594 20.7103 25.7512 20.6616H27.5995C27.8913 20.6616 28.1831 20.5644 28.3777 20.3698C28.5723 20.1753 28.7182 19.8834 28.6695 19.5916H28.2804Z" fill="#0B25DC"/>
</svg>
