<svg width="74" height="74" viewBox="0 0 74 74" fill="none" xmlns="http://www.w3.org/2000/svg">
<path d="M71.6555 38.0325C72.0544 19.0445 56.9849 3.32846 37.997 2.9296C19.009 2.53074 3.29294 17.6001 2.89408 36.5881C2.49522 55.576 17.5646 71.2921 36.5526 71.691C55.5405 72.0898 71.2566 57.0204 71.6555 38.0325Z" fill="#0B25DC"/>
<path d="M17.2344 44.8829C17.2344 44.737 17.283 44.6396 17.3803 44.5424C17.4776 44.4451 17.5748 44.3965 17.7208 44.3965C17.8667 44.3965 17.9639 44.4451 18.0612 44.5424C18.1585 44.6396 18.2071 44.737 18.2071 44.8829C18.2071 45.0288 18.1585 45.126 18.0612 45.2233C17.9639 45.3206 17.8667 45.3693 17.7208 45.3693C17.5748 45.3693 17.4776 45.3206 17.3803 45.2233C17.283 45.126 17.2344 45.0288 17.2344 44.8829ZM17.964 46.1961V51.06H17.3803V46.1961H17.964Z" fill="#F9F8F7"/>
<path d="M20.3475 46.1969V47.0237C20.3961 46.9264 20.4934 46.8292 20.6393 46.6833C20.7366 46.586 20.8826 46.4887 21.0285 46.3914C21.1744 46.2942 21.3689 46.2455 21.5149 46.1969C21.7094 46.1482 21.9039 46.0996 22.0985 46.0996C22.5849 46.0996 22.9739 46.2455 23.2658 46.4887C23.5576 46.7319 23.7036 47.121 23.7036 47.6074V51.0121H23.1198V47.656C23.1198 47.3156 23.0226 47.0724 22.8281 46.8778C22.6335 46.6833 22.3417 46.586 22.0012 46.586C21.7094 46.586 21.4176 46.6833 21.1257 46.9264C20.8339 47.1696 20.5907 47.4128 20.3961 47.7533V51.0121H19.8125V46.1482H20.3475V46.1969Z" fill="#F9F8F7"/>
<path d="M28.5209 45.1255C28.8614 45.1255 29.1532 45.0769 29.3478 44.931C29.5423 44.785 29.6396 44.5905 29.6882 44.25H30.3692V51.0594H29.6882V45.3687C29.5423 45.5146 29.3478 45.6119 29.1533 45.6605C28.9587 45.7092 28.7155 45.7092 28.375 45.7092V45.1255H28.5209Z" fill="#F9F8F7"/>
<path d="M34.6009 44.1523C35.0387 44.1523 35.3792 44.2496 35.7196 44.4442C36.0601 44.6387 36.3519 44.8819 36.5465 45.1737C36.7897 45.4656 36.9356 45.8547 37.0815 46.2924C37.1788 46.7301 37.276 47.1679 37.276 47.7029C37.276 48.238 37.2274 48.6757 37.0815 49.1135C36.9843 49.5512 36.7897 49.8917 36.5465 50.2322C36.3033 50.5727 36.0601 50.7672 35.7196 50.9618C35.3792 51.1563 34.99 51.2536 34.6009 51.2536C34.2118 51.2536 33.8227 51.1563 33.4822 50.9618C33.1417 50.7672 32.8499 50.524 32.6554 50.2322C32.4608 49.9404 32.2662 49.5512 32.1203 49.1135C32.023 48.6757 31.9258 48.238 31.9258 47.7029C31.9258 47.1679 31.9744 46.7301 32.1203 46.2924C32.2176 45.8547 32.4122 45.5142 32.6554 45.1737C32.8986 44.8819 33.1417 44.6387 33.4822 44.4442C33.8227 44.2496 34.1632 44.1523 34.6009 44.1523ZM34.6009 50.5726C34.9414 50.5726 35.1846 50.524 35.4277 50.3781C35.6709 50.2321 35.8655 50.0376 36.0601 49.7944C36.2546 49.5512 36.3519 49.2594 36.4492 48.8703C36.5465 48.5298 36.5951 48.1407 36.5951 47.7029C36.5951 47.2652 36.5465 46.8761 36.4492 46.5356C36.3519 46.1951 36.2546 45.8547 36.0601 45.6115C35.8655 45.3683 35.6709 45.1737 35.4277 45.0278C35.1846 44.8819 34.8927 44.8332 34.6009 44.8332C34.3091 44.8332 34.0173 44.8819 33.7741 45.0278C33.5309 45.1737 33.3363 45.3683 33.1417 45.6115C32.9472 45.8547 32.8499 46.1465 32.7526 46.5356C32.6553 46.9247 32.6067 47.2652 32.6067 47.7029C32.6067 48.1407 32.6553 48.5298 32.7526 48.8703C32.8499 49.2107 32.9472 49.5512 33.1417 49.7944C33.3363 50.0376 33.5309 50.2321 33.7741 50.3781C34.0173 50.4753 34.3091 50.5726 34.6009 50.5726Z" fill="#F9F8F7"/>
<path d="M42.6753 46.1969V46.9264C42.7239 46.8292 42.8212 46.7319 42.9185 46.6346C43.0158 46.5373 43.1617 46.4401 43.2589 46.3428C43.4049 46.2455 43.5507 46.1969 43.6966 46.1482C43.8426 46.0996 43.9885 46.0996 44.1345 46.0996C44.4749 46.0996 44.7667 46.1482 44.9613 46.2941C45.1558 46.44 45.3017 46.6346 45.399 46.8778C45.5935 46.6346 45.8368 46.44 46.08 46.2941C46.3718 46.1482 46.6636 46.0996 47.0041 46.0996C47.4418 46.0996 47.7824 46.2455 48.0256 46.4887C48.2687 46.7319 48.366 47.0724 48.366 47.5588V51.1094H47.7824V47.7047C47.7824 47.3642 47.6851 47.121 47.5392 46.9264C47.3933 46.7319 47.15 46.6833 46.8582 46.6833C46.615 46.6833 46.3232 46.7805 46.08 46.9264C45.8368 47.121 45.6422 47.3156 45.4962 47.5588V51.0607H44.9126V47.7047C44.9126 47.3642 44.8153 47.121 44.6694 46.9264C44.5235 46.7319 44.2803 46.6833 44.0371 46.6833C43.8912 46.6833 43.7453 46.7319 43.5994 46.7805C43.4535 46.8291 43.3075 46.9264 43.2103 47.0237C43.113 47.121 42.9671 47.2183 42.8698 47.3642C42.7725 47.5101 42.6752 47.6074 42.6266 47.7047V51.1094H42.043V46.2455H42.6753V46.1969Z" fill="#F9F8F7"/>
<path d="M50.0156 44.8829C50.0156 44.737 50.0643 44.6396 50.1616 44.5424C50.2588 44.4451 50.3561 44.3965 50.502 44.3965C50.6479 44.3965 50.7452 44.4451 50.8425 44.5424C50.9397 44.6396 50.9884 44.737 50.9884 44.8829C50.9884 45.0288 50.9397 45.126 50.8425 45.2233C50.7452 45.3206 50.6479 45.3693 50.502 45.3693C50.3561 45.3693 50.2588 45.3206 50.1616 45.2233C50.0643 45.126 50.0156 45.0288 50.0156 44.8829ZM50.7939 46.1961V51.06H50.2103V46.1961H50.7939Z" fill="#F9F8F7"/>
<path d="M53.1795 46.1969V47.0237C53.2281 46.9264 53.3254 46.8292 53.4714 46.6833C53.5686 46.586 53.7146 46.4887 53.8605 46.3914C54.0064 46.2942 54.201 46.2455 54.3469 46.1969C54.5414 46.1482 54.736 46.0996 54.9305 46.0996C55.4169 46.0996 55.806 46.2455 56.0978 46.4887C56.3896 46.7319 56.5356 47.121 56.5356 47.6074V51.0121H55.9519V47.656C55.9519 47.3156 55.8547 47.0724 55.6601 46.8778C55.4656 46.6833 55.1737 46.586 54.8333 46.586C54.5414 46.586 54.2496 46.6833 53.9578 46.9264C53.6659 47.1696 53.4227 47.4128 53.2282 47.7533V51.0121H52.6445V46.1482H53.1795V46.1969Z" fill="#F9F8F7"/>
<path d="M67.0428 20.1265C60.7198 9.13417 49.2411 3.00567 37.4219 2.95703V3.10297V37.5878L67.0915 20.2238L67.0428 20.1265Z" fill="#F9F8F7"/>
<path d="M67.0417 20.1256L67.2363 20.0283C60.8647 8.9873 49.2886 2.76153 37.3721 2.71289H37.1289V3.10202V38.0246L67.3822 20.3201L67.2363 20.0283L67.0417 20.1256L66.8472 20.2228L66.8958 20.2715L67.0904 20.1742L66.9445 19.9796L37.6153 37.1491V3.05337V2.90746H37.3721V3.15065C49.094 3.19929 60.5241 9.32776 66.7985 20.2228L67.0417 20.1256L66.8472 20.2228L67.0417 20.1256Z" fill="#0B25DC"/>
<path d="M40.3394 7.43164L39.707 13.0738L40.1934 13.1224L40.7771 7.4803" fill="#0B25DC"/>
<path d="M43.4018 7.86914L42.2344 13.4626L42.7208 13.5599L43.8882 7.96642" fill="#0B25DC"/>
<path d="M46.4697 8.69531L44.7188 14.1428L45.1565 14.2888L46.9561 8.84122" fill="#0B25DC"/>
<path d="M49.3876 9.81445L47.1016 15.0188L47.5394 15.2133L49.8739 10.009" fill="#0B25DC"/>
<path d="M52.2078 11.2246L49.3867 16.1858L49.7759 16.429L52.6456 11.4678" fill="#0B25DC"/>
<path d="M54.8795 12.9277L51.5234 17.5484L51.9126 17.8403L55.2686 13.2196" fill="#0B25DC"/>
<path d="M57.3173 14.9219L53.5234 19.1535L53.864 19.4453L57.7064 15.2137" fill="#0B25DC"/>
<path d="M59.5519 17.1094L55.3203 20.9518L55.6121 21.2923L59.8923 17.4985" fill="#0B25DC"/>
<path d="M61.5426 19.543L56.9219 22.899L57.2138 23.2882L61.8344 19.9321" fill="#0B25DC"/>
<path d="M55.5168 68.8614L55.4196 68.6668C49.7289 71.9743 43.5031 73.5307 37.3746 73.5307C24.8744 73.5307 12.7147 67.0618 6.0026 55.4371C2.69517 49.7464 1.13873 43.5206 1.13873 37.3922C1.13873 24.892 7.60766 12.7323 19.2323 6.02018C24.923 2.71275 31.1488 1.15631 37.2773 1.15631C49.7775 1.15631 61.9372 7.62524 68.6493 19.2499C71.9567 24.9406 73.5132 31.1664 73.5132 37.2949C73.5132 49.795 67.0443 61.9547 55.4196 68.6668L55.5168 68.8614L55.6141 69.056C67.3847 62.2465 73.9509 49.9409 73.9509 37.2949C73.9509 31.0691 72.3459 24.7947 69.0384 19.0067C62.229 7.23613 49.9234 0.669922 37.2773 0.669922C31.0516 0.669922 24.7771 2.27499 18.9891 5.58242C7.21855 12.3918 0.652344 24.6974 0.652344 37.3435C0.652344 43.5693 2.25747 49.8437 5.5649 55.6317C12.3743 67.4023 24.6799 73.9685 37.326 73.9685C43.5518 73.9685 49.8261 72.3634 55.6141 69.056L55.5168 68.8614Z" fill="#0B25DC"/>
</svg>
