<svg width="61" height="75" viewBox="0 0 61 75" fill="none" xmlns="http://www.w3.org/2000/svg">
<path d="M55.7586 0.892578H0.796875V70.446H55.7586V0.892578Z" fill="#F9F8F7"/>
<path d="M55.7635 0.891631V0.648438H0.558594V70.6882H56.0067V0.648438H55.7635V0.891631H55.5204V70.2018H1.04498V1.13482H55.7635V0.891631H55.5204H55.7635Z" fill="#0B25DC"/>
<path d="M60.3807 4.7832V74.0934H5.75941L0.944224 70.2509L0.652344 70.6401L5.5649 74.5798H60.8671V4.7832H60.3807Z" fill="#0B25DC"/>
<path d="M55.6141 3.56687L58.9216 5.90155V72.8284H7.36456H7.21862L3.95985 70.2505L3.66797 70.6397L7.02411 73.3148H7.36456H59.408V5.60967L55.906 3.17773L55.6141 3.56687Z" fill="#0B25DC"/>
<path d="M51.3865 6.72852H5.17969V31.5343H51.3865V6.72852Z" fill="#0B25DC"/>
<path d="M13.7388 27.2549H13.4469C13.3983 27.2549 13.3497 27.2063 13.3497 27.1576V21.9533C13.3497 21.6615 13.2523 21.4183 13.0578 21.2723C12.8632 21.1264 12.62 20.9805 12.3282 20.9805C12.0364 20.9805 11.7932 21.0778 11.5986 21.2723C11.4041 21.4669 11.3069 21.7101 11.3069 21.9533V27.2062C11.3069 27.2549 11.2581 27.2549 11.2095 27.2549H10.9177C10.8691 27.2549 10.8205 27.2549 10.8205 27.2062V21.9533C10.8205 21.6615 10.7231 21.4183 10.5286 21.2723C10.334 21.1264 10.0909 20.9805 9.84769 20.9805C9.6045 20.9805 9.31267 21.0778 9.11811 21.2723C8.92356 21.4669 8.82623 21.7101 8.82623 21.9533V27.1576C8.82623 27.2063 8.77762 27.2549 8.72898 27.2549H8.4371C8.38846 27.2549 8.33984 27.2063 8.33984 27.1576V20.7373C8.33984 20.6887 8.38846 20.64 8.4371 20.64H8.72898C8.77762 20.64 8.82623 20.6887 8.82623 20.7373V20.8832C8.97215 20.7859 9.11802 20.6887 9.26393 20.5914C9.40985 20.5428 9.60445 20.4941 9.79901 20.4941C10.0422 20.4941 10.2853 20.5427 10.4799 20.6886C10.6745 20.8346 10.8691 20.9805 11.015 21.175C11.1609 20.9805 11.3069 20.8346 11.55 20.6886C11.7446 20.5427 11.9877 20.4941 12.2309 20.4941C12.4255 20.4941 12.62 20.5428 12.8146 20.5914C13.0091 20.6887 13.1551 20.7859 13.2524 20.8832C13.3983 21.0291 13.4955 21.1751 13.5442 21.321C13.6414 21.5155 13.6414 21.7101 13.6414 21.9046V27.109C13.836 27.2063 13.8361 27.2549 13.7388 27.2549Z" fill="#F9F8F7"/>
<path d="M20.5455 25.358C20.5455 25.6498 20.4968 25.893 20.3995 26.1848C20.3022 26.428 20.1562 26.6713 19.9617 26.8172C19.7671 26.9631 19.5727 27.1576 19.3295 27.2549C19.0863 27.3522 18.7944 27.4008 18.5025 27.4008H18.2108C17.9189 27.4008 17.6758 27.3522 17.3839 27.2549C17.1407 27.1576 16.8975 27.0117 16.7516 26.8172C16.6057 26.6226 16.4111 26.428 16.3138 26.1848C16.2165 25.9417 16.168 25.6498 16.168 25.358V22.5856C16.168 22.2937 16.2165 22.0506 16.3138 21.7587C16.4111 21.5155 16.5571 21.2723 16.7516 21.0778C16.9462 20.8832 17.1407 20.7373 17.3839 20.64C17.6271 20.5427 17.9189 20.4941 18.2108 20.4941H18.5025C18.7944 20.4941 19.0377 20.5427 19.3295 20.64C19.5727 20.7373 19.8158 20.8832 19.9617 21.0778C20.1076 21.2723 20.3022 21.4669 20.3995 21.7587C20.4968 22.0019 20.5455 22.2937 20.5455 22.5856V25.358ZM20.0591 22.5856C20.0591 22.3424 20.0104 22.1479 19.9131 21.9533C19.8158 21.7587 19.7186 21.5641 19.5727 21.4182C19.4268 21.2723 19.2808 21.1751 19.0376 21.0778C18.8431 20.9805 18.6485 20.9318 18.4053 20.9318H18.1135C17.8703 20.9318 17.6757 20.9805 17.4812 21.0778C17.2866 21.1751 17.1407 21.2723 16.9948 21.4182C16.8489 21.5641 16.7516 21.7587 16.6544 21.9533C16.5571 22.1479 16.5084 22.3424 16.5084 22.5856V25.358C16.5084 25.6012 16.5571 25.7957 16.6544 25.9903C16.7516 26.1848 16.8489 26.3308 16.9948 26.4767C17.1407 26.6226 17.2866 26.7199 17.4812 26.8172C17.6757 26.9145 17.8703 26.9631 18.1135 26.9631H18.4053C18.5998 26.9631 18.8431 26.9145 19.0376 26.8172C19.2322 26.7199 19.4268 26.6226 19.5727 26.4767C19.7186 26.3308 19.8158 26.1362 19.9131 25.9903C20.0104 25.7957 20.0591 25.6012 20.0591 25.358V22.5856Z" fill="#F9F8F7"/>
<path d="M27.6448 27.2549H27.353C27.3044 27.2549 27.2557 27.2063 27.2557 27.1576V22.5856C27.2557 22.3424 27.2071 22.1479 27.1098 21.9533C27.0126 21.7587 26.9152 21.5641 26.7693 21.4182C26.6234 21.2723 26.4289 21.1751 26.2343 21.0778C26.0398 20.9805 25.8452 20.9318 25.602 20.9318H25.3101C25.0669 20.9318 24.8725 20.9805 24.6779 21.0778C24.4834 21.1751 24.3374 21.2723 24.1915 21.4182C24.0456 21.5641 23.9482 21.7587 23.851 21.9533C23.7537 22.1479 23.7051 22.3424 23.7051 22.5856V27.1576C23.7051 27.2063 23.6564 27.2549 23.6078 27.2549H23.316C23.2674 27.2549 23.2188 27.2063 23.2188 27.1576V20.7373C23.2188 20.6887 23.2674 20.64 23.316 20.64H23.6078C23.6564 20.64 23.7051 20.6887 23.7051 20.7373V21.2723C23.8997 21.0292 24.1428 20.8346 24.386 20.6886C24.6779 20.5427 24.9696 20.4941 25.3101 20.4941H25.602C25.8938 20.4941 26.1371 20.5427 26.3803 20.64C26.6235 20.7373 26.8666 20.8832 27.0612 21.0778C27.2557 21.2723 27.4016 21.4669 27.4989 21.7587C27.5961 22.0019 27.6448 22.2937 27.6448 22.5856V27.1576C27.6934 27.2063 27.6934 27.2549 27.6448 27.2549Z" fill="#F9F8F7"/>
<path d="M35.1356 27.2068L35.0382 27.2554H34.6492H34.6005H34.5519L31.7309 23.7048L30.7581 24.6776V27.2068C30.7581 27.2554 30.7581 27.3041 30.7094 27.3041H30.4176C30.3689 27.3041 30.3203 27.2554 30.3203 27.2068V17.6736C30.3203 17.625 30.3689 17.625 30.4176 17.625H30.7094L30.7581 17.6736V23.9967L34.1142 20.6892H34.1628H34.6005L34.6978 20.7379L34.6492 20.8351L32.0714 23.413L35.0869 27.1582L35.1356 27.2068Z" fill="#F9F8F7"/>
</svg>
