<svg width="74" height="74" viewBox="0 0 74 74" fill="none" xmlns="http://www.w3.org/2000/svg">
<path d="M67.8201 34.1838H67.431H73.2676V0.623047H8.57812V34.1838H51.5261" fill="#0B25DC"/>
<path d="M63.8788 34.1822L57.8477 39.8729L51.8164 34.1822L57.8477 27.8105L63.8788 34.1822Z" fill="#0B25DC"/>
<path d="M0.796875 34.1836V67.6471H6.24439H6.63352H10.1842L16.2153 73.435L17.0908 67.6471H22.5384H57.9474V34.1836H0.796875Z" fill="#F9F8F7"/>
<path d="M0.797881 34.1826H0.554688V67.8893H6.24539H6.63453H10.0879L16.3623 73.9205L17.2864 67.8893H22.5394H58.1916V33.9395H0.554688V34.1826H0.797881V34.4258H57.7052V67.4029H22.5394H16.8973L16.0218 72.9477L10.2824 67.4029H6.63453H6.24539H1.04107V34.1826H0.797881V34.4258V34.1826Z" fill="#0B25DC"/>
<path d="M11.2539 45.3692H46.7602V44.8828H11.2539" fill="#0B25DC"/>
<path d="M11.4961 51.2071H47.0024V50.7207H11.4961" fill="#0B25DC"/>
<path d="M11.7422 57.043H47.2485V56.5566H11.7422" fill="#0B25DC"/>
<path d="M21.9531 11.8087H57.4594V11.3223H21.9531" fill="#F9F8F7"/>
<path d="M22.1953 17.6465H57.7016V17.1602H22.1953" fill="#F9F8F7"/>
<path d="M22.4414 23.4825H57.9477V22.9961H22.4414" fill="#F9F8F7"/>
</svg>
