<?xml version="1.0" encoding="UTF-8"?>
<svg width="347px" height="347px" viewBox="0 0 347 347" version="1.1" xmlns="http://www.w3.org/2000/svg" xmlns:xlink="http://www.w3.org/1999/xlink">
    <!-- Generator: Sketch 55.2 (78181) - https://sketchapp.com -->
    <title>monk-dolphin</title>
    <desc>Created with Sketch.</desc>
    <defs>
        <radialGradient cx="31.3747376%" cy="40.1585822%" fx="31.3747376%" fy="40.1585822%" r="80.6481878%" gradientTransform="translate(0.313747,0.401586),scale(0.764064,1.000000),translate(-0.313747,-0.401586)" id="radialGradient-1">
            <stop stop-color="#9ED8D5" offset="0%"></stop>
            <stop stop-color="#585D6E" offset="62.29%"></stop>
        </radialGradient>
    </defs>
    <g id="Page-1" stroke="none" stroke-width="1" fill="none" fill-rule="evenodd">
        <g id="monk-dolphin" fill-rule="nonzero">
            <path d="M257.19,169.03 C241.99,139.96 225.66,112.93 209.03,89.2 C209.1,89.21 209.18,89.22 209.25,89.24 L209.29,89.03 C209.15,89 209,88.98 208.86,88.95 C208.75,88.8 208.64,88.65 208.54,88.49 C203.66,87.91 197.59,87.47 193.87,87.2 C133.49,82.69 80.52,119.3 73.11,170.04 C62.97,168.29 54.15,166.11 47.53,164.01 C46.98,163.83 46.42,163.66 45.89,163.48 C27.45,157.33 12.35,160.19 4.47,171.31 C4.21,171.68 3.97,172.05 3.74,172.43 C3.67,172.54 3.6,172.66 3.54,172.77 C3.37,173.05 3.22,173.34 3.06,173.63 C3,173.75 2.94,173.87 2.88,173.99 C2.69,174.38 2.5,174.77 2.34,175.17 C2.33,175.18 2.33,175.19 2.32,175.21 C2.15,175.62 1.99,176.04 1.85,176.47 C1.81,176.6 1.77,176.72 1.73,176.85 C1.63,177.17 1.53,177.48 1.44,177.81 C1.4,177.94 1.37,178.07 1.33,178.2 C1.22,178.62 1.13,179.04 1.05,179.46 C1.05,179.48 1.04,179.5 1.04,179.53 C0.96,179.98 0.89,180.43 0.83,180.89 C0.81,181.02 0.8,181.16 0.79,181.29 C0.75,181.63 0.72,181.97 0.7,182.32 C0.69,182.4 0.68,182.49 0.68,182.57 L0.69,182.57 C0.58,184.66 0.74,186.82 1.18,189.01 C2.39,194.98 5.55,200.46 9.89,204.13 C7.66,198.71 7.24,194.43 8.63,191.15 C9.94,188.05 12.92,185.88 17.49,184.71 C25.8,182.56 37.96,188.49 54.8,196.68 C65.56,201.92 77.75,207.85 91.88,213.13 C110,219.9 125.16,223.72 138.2,224.82 C150.95,225.89 161.81,224.36 171.38,220.13 L171.47,220.09 L171.51,220.18 C171.6,220.38 180.88,239.93 198.57,249.42 C203.7,252.17 210.22,258.5 212.12,273 C212.98,279.53 212.31,286.64 212.05,289.52 C214.98,286.95 218.24,284.09 221.28,281.44 C226.28,277.08 231.45,272.57 236.62,267.96 C251.83,254.39 261.57,237.34 264.79,218.64 C267.72,201.63 265.02,184.01 257.19,169.03 Z" id="Path" fill="url(#radialGradient-1)"></path>
            <g id="Group" transform="translate(8.000000, 184.000000)">
                <g id="Path">
                    <path d="M68.62,74.59 C56.14,67.86 43.37,60 32.63,52.29 C37.53,68.02 44.88,83.08 54.46,96.56 C63.94,109.89 75.39,121.61 88.49,131.41 C99.74,139.83 113.56,147.3 126.56,152.4 C128.97,130.65 128.08,118.43 123.38,109.43 C118.63,100.32 109.62,93.62 91.53,85.78 C84.29,82.64 76.43,78.79 68.62,74.59" fill="#010101"></path>
                    <path d="M204.07,105.54 L204.05,105.54 C204.06,105.46 205.25,97.67 204.12,89.04 C202.23,74.63 195.66,68.17 190.57,65.44 C173.45,56.25 164.08,37.86 163.36,36.38 C153.78,40.59 142.92,42.12 130.17,41.05 C117.11,39.95 101.94,36.12 83.8,29.35 C69.66,24.07 57.46,18.13 46.7,12.89 C29.91,4.72 17.77,-1.19 9.54,0.93 C5.04,2.09 2.11,4.22 0.82,7.25 C-1.04,11.64 0.39,17.89 5.19,26.36 C14.94,43.56 58.53,71.49 91.55,85.8 C109.69,93.66 118.62,100.29 123.4,109.45 C128.12,118.5 129,130.58 126.58,152.42 C128.36,153.1 130.19,153.71 132,154.33 C140.3,157.14 148.88,159.24 157.53,160.62 C163.07,142.76 181.58,125.34 204.07,105.54 Z" fill="#F1EFED"></path>
                </g>
                <path d="M199.43,109.62 L199.43,109.62 C200.41,87.84 183.28,64.07 157.26,80.54 C127.7,99.25 81.17,80.54 40.95,58.03 C56.91,68.64 75.48,78.83 91.55,85.79 C109.69,93.65 118.62,100.28 123.4,109.44 C128.12,118.49 129,130.57 126.58,152.41 C128.36,153.09 130.19,153.7 132,154.32 C140.3,157.13 148.88,159.23 157.53,160.61 C162.44,144.77 180.37,126.78 199.43,109.62 Z" id="Path" fill="#B0B0B0"></path>
            </g>
            <path d="M257.19,169.03 C250.21,155.68 242.98,142.76 235.6,130.39 L227.98,127.18 L215.26,124.03 L215,124.21 L215.19,123.39 C215.73,121.14 215.07,118.97 213.7,117.43 C213.16,116.82 201.45,108.08 201.45,108.08 L201.45,108.08 C202.99,109.63 203.78,111.92 203.21,114.31 L200.08,127.18 L200.18,127.07 L190.8,166.35 C190.11,169.24 187.58,171.31 184.61,171.43 L151.54,172.44 L136.11,173.1 L115.58,173.5 C117.94,173.81 119.91,174.39 122.01,175.01 C124.39,175.71 129.83,177.28 132.28,178.38 C139.65,181.68 141.42,181.69 150.35,181.68 L196.68,181.95 C199.65,181.83 202.17,179.76 202.87,176.87 L203.06,176.03 L224.14,177.92 L265.68,198.52 C264.8,188.2 261.95,178.13 257.19,169.03 Z" id="Path" fill="#141B26"></path>
            <path d="M346.81,184.37 C346.75,182.68 346.66,181 346.55,179.31 C346.54,179.21 346.54,179.11 346.53,179.01 C344.94,155.96 338.29,133.58 327.05,113.47 C326.97,113.33 326.89,113.19 326.82,113.05 C326.03,111.65 325.22,110.26 324.39,108.88 C324.27,108.68 324.15,108.49 324.03,108.29 C323.22,106.97 322.4,105.66 321.56,104.37 C321.46,104.21 321.35,104.05 321.25,103.9 C320.65,102.99 320.03,102.09 319.42,101.2 C318.84,100.36 318.25,99.52 317.66,98.69 C317.17,98.01 316.68,97.34 316.19,96.67 C315.63,95.92 315.07,95.18 314.5,94.44 C313.93,93.7 313.36,92.96 312.78,92.23 C312.3,91.63 311.81,91.04 311.33,90.45 C310.64,89.61 309.94,88.76 309.23,87.93 C308.91,87.56 308.58,87.19 308.26,86.82 C300.61,78.07 292.02,70.18 282.64,63.32 C282.55,63.25 282.46,63.19 282.37,63.12 C281.14,62.22 279.88,61.34 278.62,60.48 C278.38,60.32 278.15,60.16 277.91,60 C276.76,59.22 275.59,58.46 274.41,57.71 C274.03,57.47 273.66,57.23 273.28,57 C272.21,56.33 271.13,55.67 270.05,55.03 C269.52,54.72 268.99,54.41 268.47,54.11 C267.5,53.55 266.52,52.99 265.54,52.45 C264.89,52.1 264.24,51.75 263.59,51.41 C262.84,51.02 261.79,50.47 260.47,49.8 C257.45,48.29 194.42,16.26 170.51,6.74 C158.09,1.8 152.62,-1.57 141.4,2.25 C121.84,8.9 57.26,98.96 45.08,131.38 C47.72,125.51 118.92,24.25 134.91,14.67 C138.08,12.77 142.97,13.47 149.15,18.22 C157.13,24.35 166.23,34.6 178.51,49.57 C180.52,52.02 182.6,54.56 184.72,57.12 C192.78,66.87 200.87,77.53 208.89,88.96 C209.03,88.99 209.18,89.01 209.32,89.04 L209.28,89.25 C209.21,89.24 209.13,89.23 209.06,89.21 C225.69,112.94 242.02,139.97 257.22,169.04 C265.05,184.02 267.75,201.64 264.82,218.65 C261.6,237.35 251.86,254.41 236.65,267.97 C231.48,272.58 226.31,277.09 221.31,281.45 C194.84,304.53 171.84,324.46 165.55,344.59 C173.64,345.86 181.99,346.54 190.27,346.54 C211.42,346.54 231.94,342.4 251.25,334.23 C253.58,333.24 255.88,332.2 258.16,331.11 C274.06,323.46 288.46,313.24 301.05,300.65 C313.64,288.06 323.86,273.66 331.51,257.76 C332.6,255.49 333.64,253.19 334.63,250.85 C342.8,231.53 346.94,211.02 346.94,189.87 C346.94,188.16 346.91,186.46 346.85,184.76 C346.82,184.62 346.82,184.5 346.81,184.37 Z" id="Path" fill="#18202D"></path>
            <path d="M195.93,106.18 L72.85,121.73 C70.22,122.06 68.04,123.92 67.3,126.46 L55.44,166.06 C55.42,166.13 55.41,166.2 55.39,166.28 C69.36,169.9 88.96,173.21 109.64,173.58 L109.09,173.63 L136.1,173.1 L151.53,172.44 L184.6,171.43 C187.57,171.31 190.09,169.24 190.79,166.35 L200.17,127.07 L200.07,127.18 L203.2,114.31 C204.29,109.81 200.53,105.61 195.93,106.18 Z" id="Path" fill="#F1EFED"></path>
            <path d="M242.55,161.85 C253.56,201.39 251.25,243.55 221.95,280.58 C223.96,278.83 225.99,277.18 228.04,275.53 C230.88,273.04 233.74,270.52 236.61,267.96 C251.82,254.39 261.56,237.34 264.78,218.64 C267.71,201.62 265.01,184 257.18,169.03 C241.98,139.96 225.65,112.93 209.02,89.2 C209.09,89.21 209.17,89.22 209.24,89.24 L209.28,89.03 C209.14,89 208.99,88.98 208.85,88.95 C208.67,88.7 208.49,88.45 208.31,88.19 C202.71,87.76 196.67,87.41 193.85,87.2 C184.95,86.54 176.22,86.76 167.77,87.78 C206.42,98.5 232.77,126.75 242.55,161.85 Z" id="Path" fill="#141B26" opacity="0.72"></path>
            <path d="M55.44,166.06 L67.3,126.46 C68.04,123.91 70.22,122.05 72.85,121.73 L100.89,118.19 C123.55,96.81 157.35,84.5 193.86,87.22 C197.56,87.49 203.6,87.93 208.46,88.5 C208.45,88.46 208.44,88.42 208.43,88.37 C208.42,88.35 208.41,88.34 208.4,88.32 C204.47,82.74 200.53,77.34 196.59,72.15 C196.49,72.02 196.39,71.9 196.3,71.77 C195.41,70.6 194.52,69.44 193.63,68.29 C193.42,68.01 193.2,67.74 192.99,67.47 C192.21,66.47 191.44,65.48 190.66,64.5 C190.2,63.92 189.73,63.34 189.27,62.77 C188.74,62.11 188.21,61.44 187.68,60.78 C186.68,59.55 185.68,58.32 184.68,57.12 C183.62,55.84 182.57,54.56 181.53,53.3 C180.49,52.04 179.47,50.79 178.47,49.56 C173.87,43.94 169.71,38.99 165.89,34.68 C164.62,33.24 163.38,31.87 162.18,30.57 C157.37,25.37 153.1,21.28 149.11,18.21 C149.11,18.21 149.11,18.21 149.1,18.21 C148.62,17.84 148.15,17.51 147.69,17.19 C147.56,17.1 147.43,17.01 147.3,16.93 C146.93,16.69 146.57,16.46 146.22,16.24 C146.12,16.18 146.02,16.11 145.92,16.05 C145.48,15.79 145.04,15.55 144.61,15.33 C144.53,15.29 144.46,15.26 144.39,15.22 C144.03,15.04 143.67,14.88 143.32,14.74 C143.22,14.7 143.12,14.66 143.02,14.62 C142.62,14.46 142.23,14.32 141.84,14.2 C141.83,14.2 141.83,14.2 141.82,14.19 C141.42,14.07 141.02,13.97 140.64,13.89 C140.57,13.88 140.5,13.86 140.43,13.85 C140.1,13.79 139.79,13.74 139.47,13.72 C139.41,13.71 139.36,13.71 139.3,13.7 C138.93,13.6695948 138.58,13.66 138.23,13.68 C138.11,13.68 138,13.7 137.88,13.71 C137.44,13.75 137.02,13.82 136.62,13.92 C136.6,13.92 136.59,13.93 136.57,13.93 C136.17,14.03 135.79,14.17 135.44,14.34 C135.24,14.43 135.04,14.54 134.85,14.65 C118.86,24.23 47.66,125.49 45.02,131.36 C45.63,129.73 46.38,127.95 47.25,126.05 C46.85,126.85 46.47,127.64 46.09,128.42 C45.73,129.17 45.37,129.91 45.03,130.65 C44.89,130.96 44.74,131.29 44.58,131.65 C44.46,131.93 44.33,132.24 44.2,132.54 C44.2,132.55 44.19,132.56 44.19,132.56 C42.7,136.17 41,141.34 39.47,146.78 C38.07,151.65 36.8,156.71 35.93,160.99 C39.11,161.52 42.43,162.35 45.87,163.49 C48.62,164.41 51.82,165.35 55.37,166.26 C55.41,166.2 55.42,166.13 55.44,166.06 Z" id="Path" fill="#010101"></path>
            <path d="M184.25,111.79 L78.55,123.54 L67.47,133.44 L58,166.93 C59.56,167.31 61.18,167.68 62.85,168.05 L71.04,139.09 L82.12,129.19 L187.82,117.44 L194.9,123.21 L195.48,120.94 L184.25,111.79 Z" id="Path" fill="#18202D"></path>
            <path d="M187.83,117.44 L82.13,129.19 L71.05,139.09 L62.86,168.05 C66.88,168.93 71.23,169.76 75.81,170.5 L95.91,169.71 L174.82,166.28 L185.95,158.54 L194.9,123.22 L187.83,117.44 Z" id="Path" fill="#9ED8D5"></path>
        </g>
    </g>
</svg>