<svg width="199" height="52" viewBox="0 0 199 52" fill="none" xmlns="http://www.w3.org/2000/svg">
<path d="M46.8244 20.77C48.0044 19.39 49.4844 18.7 51.2644 18.7C53.0444 18.7 54.2944 19.4 55.0144 20.8C56.3544 19.4 57.9544 18.7 59.8144 18.7C61.3544 18.7 62.5444 19.13 63.3844 19.99C64.2244 20.85 64.6444 22.03 64.6444 23.53V34H60.4444V24.46C60.4444 23.02 59.8044 22.3 58.5244 22.3C57.3644 22.3 56.4244 22.93 55.7044 24.19V34H51.5044V24.49C51.5044 23.03 50.8844 22.3 49.6444 22.3C49.0644 22.3 48.5244 22.49 48.0244 22.87C47.5244 23.25 47.1244 23.74 46.8244 24.34V34H42.6244V19H46.8244V20.77ZM75.5541 18.7C77.1141 18.7 78.5141 19.04 79.7541 19.72C80.9941 20.4 81.9641 21.33 82.6641 22.51C83.3641 23.69 83.7141 25.02 83.7141 26.5C83.7141 27.98 83.3641 29.31 82.6641 30.49C81.9641 31.67 80.9941 32.6 79.7541 33.28C78.5141 33.96 77.1141 34.3 75.5541 34.3C73.9741 34.3 72.5641 33.96 71.3241 33.28C70.0841 32.6 69.1141 31.67 68.4141 30.49C67.7141 29.31 67.3641 27.98 67.3641 26.5C67.3641 25.02 67.7141 23.69 68.4141 22.51C69.1141 21.33 70.0841 20.4 71.3241 19.72C72.5641 19.04 73.9741 18.7 75.5541 18.7ZM75.5541 22.33C74.3941 22.33 73.4341 22.71 72.6741 23.47C71.9341 24.21 71.5641 25.22 71.5641 26.5C71.5641 27.78 71.9341 28.8 72.6741 29.56C73.4341 30.3 74.3941 30.67 75.5541 30.67C76.7141 30.67 77.6641 30.3 78.4041 29.56C79.1441 28.8 79.5141 27.78 79.5141 26.5C79.5141 25.22 79.1441 24.21 78.4041 23.47C77.6641 22.71 76.7141 22.33 75.5541 22.33ZM90.6818 20.95C92.1018 19.45 93.7618 18.7 95.6618 18.7C97.2818 18.7 98.5518 19.17 99.4718 20.11C100.392 21.05 100.852 22.26 100.852 23.74V34H96.6518V24.97C96.6518 24.09 96.4418 23.43 96.0218 22.99C95.6218 22.53 95.0218 22.3 94.2218 22.3C93.5218 22.3 92.8518 22.52 92.2118 22.96C91.5718 23.38 91.0618 23.91 90.6818 24.55V34H86.4818V19H90.6818V20.95ZM109.026 27.7H108.816V34H104.646V12.1H108.816V23.89H109.026L113.286 19H118.236L112.506 25.57L118.566 34H113.616L109.026 27.7Z" fill="#131A25"/>
<path d="M124.518 34V18.6H129.996C131.668 18.6 133.12 18.908 134.352 19.524C135.584 20.1253 136.53 21.0053 137.19 22.164C137.865 23.3227 138.202 24.7013 138.202 26.3C138.202 27.8987 137.865 29.2773 137.19 30.436C136.53 31.5947 135.584 32.482 134.352 33.098C133.12 33.6993 131.668 34 129.996 34H124.518ZM127.884 21.592V31.008H129.886C131.499 31.008 132.724 30.6193 133.56 29.842C134.411 29.05 134.836 27.8693 134.836 26.3C134.836 24.7307 134.411 23.5573 133.56 22.78C132.724 21.988 131.499 21.592 129.886 21.592H127.884ZM156.955 26.3C156.955 27.8547 156.61 29.2333 155.921 30.436C155.246 31.624 154.307 32.5553 153.105 33.23C151.902 33.89 150.553 34.22 149.057 34.22C147.561 34.22 146.211 33.89 145.009 33.23C143.806 32.5553 142.86 31.624 142.171 30.436C141.496 29.2333 141.159 27.8547 141.159 26.3C141.159 24.7453 141.496 23.374 142.171 22.186C142.86 20.9833 143.806 20.052 145.009 19.392C146.211 18.7173 147.561 18.38 149.057 18.38C150.553 18.38 151.902 18.7173 153.105 19.392C154.307 20.052 155.246 20.9833 155.921 22.186C156.61 23.374 156.955 24.7453 156.955 26.3ZM153.567 26.3C153.567 25.332 153.376 24.4813 152.995 23.748C152.628 23 152.1 22.4207 151.411 22.01C150.736 21.5847 149.951 21.372 149.057 21.372C148.147 21.372 147.348 21.5847 146.659 22.01C145.984 22.4207 145.463 23 145.097 23.748C144.73 24.4813 144.547 25.332 144.547 26.3C144.547 27.268 144.73 28.126 145.097 28.874C145.463 29.6073 145.984 30.1867 146.659 30.612C147.348 31.0227 148.147 31.228 149.057 31.228C149.951 31.228 150.736 31.0227 151.411 30.612C152.1 30.1867 152.628 29.6073 152.995 28.874C153.376 28.126 153.567 27.268 153.567 26.3ZM167.818 31.228C168.786 31.228 169.607 30.986 170.282 30.502C170.957 30.018 171.426 29.336 171.69 28.456L174.682 28.852L174.88 29.16C174.381 30.788 173.516 32.042 172.284 32.922C171.052 33.7873 169.556 34.22 167.796 34.22C166.359 34.22 165.031 33.89 163.814 33.23C162.611 32.57 161.651 31.646 160.932 30.458C160.228 29.2553 159.876 27.8693 159.876 26.3C159.876 24.7307 160.228 23.352 160.932 22.164C161.651 20.9613 162.611 20.03 163.814 19.37C165.031 18.71 166.359 18.38 167.796 18.38C169.057 18.38 170.179 18.5927 171.162 19.018C172.159 19.4433 172.973 20.0373 173.604 20.8C174.235 21.5627 174.66 22.4427 174.88 23.44L174.704 23.748L171.69 24.144C171.441 23.264 170.971 22.582 170.282 22.098C169.593 21.614 168.742 21.372 167.73 21.372C166.821 21.372 166.029 21.5847 165.354 22.01C164.679 22.4207 164.159 23 163.792 23.748C163.44 24.496 163.264 25.3467 163.264 26.3C163.264 27.268 163.447 28.126 163.814 28.874C164.181 29.6073 164.709 30.1867 165.398 30.612C166.087 31.0227 166.894 31.228 167.818 31.228ZM180.884 22.186C180.884 22.6847 181.148 23.0807 181.676 23.374C182.204 23.6673 183.136 23.9607 184.47 24.254C186.069 24.6207 187.264 25.1927 188.056 25.97C188.863 26.7473 189.266 27.796 189.266 29.116C189.266 30.1427 189.002 31.0447 188.474 31.822C187.961 32.5847 187.257 33.1787 186.362 33.604C185.468 34.0147 184.47 34.22 183.37 34.22C182.241 34.22 181.229 34.0147 180.334 33.604C179.44 33.1933 178.721 32.6213 178.178 31.888C177.636 31.1547 177.32 30.3113 177.232 29.358L177.408 29.116L180.466 28.654C180.554 29.534 180.87 30.2233 181.412 30.722C181.97 31.206 182.652 31.448 183.458 31.448C184.192 31.448 184.786 31.2647 185.24 30.898C185.71 30.5167 185.944 30.0033 185.944 29.358C185.944 28.8447 185.834 28.4267 185.614 28.104C185.409 27.7813 185.05 27.5027 184.536 27.268C184.023 27.0333 183.312 26.8207 182.402 26.63C181.009 26.3513 179.894 25.86 179.058 25.156C178.237 24.452 177.826 23.528 177.826 22.384C177.826 21.5773 178.046 20.8733 178.486 20.272C178.941 19.6707 179.557 19.2087 180.334 18.886C181.126 18.5487 182.014 18.38 182.996 18.38C184.639 18.38 185.93 18.7613 186.868 19.524C187.822 20.2867 188.394 21.3133 188.584 22.604L188.386 22.846L185.548 23.154C185.46 22.4353 185.182 21.8707 184.712 21.46C184.258 21.0347 183.649 20.822 182.886 20.822C182.3 20.822 181.816 20.954 181.434 21.218C181.068 21.4673 180.884 21.79 180.884 22.186Z" fill="#787E94"/>
<path d="M11.3936 15.6452C11.7795 14.5242 12.0357 13.7794 12.2614 13.1128C10.1111 14.2345 8.18796 15.8545 6.69908 17.7992C5.16476 19.8027 4.11756 22.125 3.66992 24.5137C3.99019 24.568 4.32461 24.6522 4.67021 24.7676C5.42098 25.0179 6.35945 25.2756 7.45209 25.4655C7.69937 23.7003 8.46355 22.1213 9.6262 20.797C10.3688 18.6274 11.013 16.7505 11.3936 15.6452Z" fill="#9ED8D5"/>
<path d="M19.4049 13.3502C19.1866 13.0858 18.9468 12.6196 18.7398 12.3663C17.0892 10.3524 15.4313 9.16066 14.2463 9.09661C12.7269 9.01468 6.84208 16.5649 4.57636 21.4039C4.28737 22.0206 3.87475 23.403 3.66992 24.4413L7.47294 25.3969L11.343 24.3124L12.0193 18.9207C13.9439 17.7149 16.3213 17.0155 18.8716 17.0155C19.2172 17.0155 19.5658 16.9537 19.9166 16.9797C20.4238 17.0177 20.9325 17.0095 21.43 17.1019C21.1515 15.7083 20.2316 14.3498 19.4049 13.3502Z" fill="#010101"/>
<path d="M0.823151 27.6417C0.958707 27.3222 1.26557 27.0987 1.73629 26.9773C2.59283 26.7561 3.84635 27.3668 5.58177 28.2115C6.69005 28.7514 7.9473 29.3629 9.40341 29.9067C11.2714 30.6045 12.8333 30.9986 14.1769 31.1118C15.4915 31.222 16.6102 31.0641 17.5964 30.6284L17.6061 30.6239L17.6105 30.6336C17.6202 30.6537 18.5765 32.6699 20.3998 33.6479C20.9287 33.9316 21.6005 34.5841 21.7964 36.0782C21.9029 36.8915 21.821 37.7563 21.8046 37.8836C22.1055 37.6185 22.8518 37.2043 23.1646 36.9317C23.68 36.4826 24.2126 36.0179 24.7458 35.5419C26.3099 34.1469 27.3117 32.3936 27.6424 30.4705C27.9433 28.7217 27.6663 26.9103 26.8611 25.3707C25.291 22.3684 23.604 19.5768 21.8865 17.1279C21.383 17.034 20.4296 16.9663 19.9157 16.9283C13.6719 16.462 8.20873 20.2159 7.4736 25.472C8.9811 25.7335 10.7791 25.8653 12.7774 25.6709L12.7797 25.6925C9.31775 26.0292 6.45544 25.3879 4.66416 24.7905C2.76339 24.1567 1.20748 24.4509 0.395628 25.5979C0.0396069 26.1007 -0.0817991 26.7486 0.054502 27.4212C0.178886 28.0357 0.505114 28.601 0.952002 28.9794C0.722599 28.42 0.679402 27.9791 0.823151 27.6417Z" fill="url(#paint0_radial)"/>
<path d="M7.83222 34.5918C6.54593 33.8983 5.22984 33.1133 4.12305 32.3193C4.62803 33.9408 5.38551 35.4669 6.37313 36.8567C7.35033 38.2302 8.53011 39.439 9.88046 40.449C11.0401 41.3167 12.465 42.0861 13.8041 42.6119C14.0522 40.37 13.9419 39.121 13.4578 38.1937C12.9677 37.2552 12.0501 36.5745 10.1858 35.7663C9.43804 35.4416 8.63737 35.0245 7.83222 34.5918Z" fill="#010101"/>
<path d="M21.7808 37.7561H21.7786C21.7801 37.7487 21.8896 36.9696 21.7726 36.0803C21.5775 34.5951 20.9116 33.9486 20.3873 33.6671C18.6228 32.7204 17.6672 30.8055 17.5935 30.6528C16.6059 31.087 15.4872 31.2442 14.1733 31.134C12.8274 31.0207 11.2641 30.626 9.39382 29.9281C7.93622 29.3836 6.67898 28.7714 5.56995 28.2322C3.839 27.3898 2.58846 26.7805 1.73937 26.9995C1.2761 27.1194 0.973701 27.3384 0.841124 27.6512C0.648962 28.1041 0.796434 28.7476 1.29174 29.6205C2.29723 31.3932 6.78996 34.2711 10.193 35.7466C12.0625 36.557 12.9831 37.2399 13.4754 38.1836C13.9625 39.1161 14.0519 40.3607 13.8024 42.6123C13.9863 42.6823 14.174 42.7456 14.361 42.8089C15.2168 43.0987 16.1009 43.3154 16.9917 43.4569C17.5637 41.6172 19.463 39.7961 21.7808 37.7561Z" fill="#F1EFED" stroke="#F1EFED" stroke-width="0.75" stroke-miterlimit="10"/>
<path d="M21.3177 21.291L20.5297 24.8698L20.4746 26.0459L23.0338 26.276L29.8176 29.6396L27.7611 22.8677L23.4323 21.0459L22.1207 20.7219L21.3177 21.291Z" fill="#141B26"/>
<path opacity="0.2" d="M21.0159 38.4389L21.313 38.2013C21.4143 35.9564 19.6484 33.5067 16.9663 35.2041C13.9193 37.1325 9.12415 35.2041 4.97852 32.884C6.62307 33.9774 8.53724 35.0276 10.1937 35.7456C12.0632 36.556 12.9838 37.239 13.4761 38.1826C13.9632 39.1152 14.0526 40.3597 13.8031 42.6113C13.987 42.6813 14.1747 42.7446 14.3617 42.8079C15.2175 43.0977 16.1016 43.3144 16.9924 43.4559C17.5018 41.8248 19.0525 40.2078 21.0159 38.4389Z" fill="#141B26"/>
<path opacity="0.72" d="M26.5712 25.3713C25.0011 22.369 24.2057 19.5931 22.4881 17.1441C21.9846 17.0503 20.4324 16.9661 19.9178 16.9281C19.0009 16.8596 18.1012 16.8827 17.2305 16.9877C21.2115 18.0915 23.9278 21.0023 24.9356 24.6206C26.0707 28.6954 25.8316 33.0414 22.8121 36.8579C23.3015 36.4311 23.8049 36.0661 24.3092 35.6163C25.8733 34.2212 27.0211 32.3934 27.3517 30.4703C27.6534 28.7215 27.3763 26.9109 26.5712 25.3713Z" fill="#141B26"/>
<path d="M14.2463 9.35077C12.7306 9.21372 6.84208 16.5665 4.57636 21.4056C4.28737 22.0223 3.87475 23.4047 3.66992 24.4429L6.70802 26.2774" fill="#010101"/>
<path d="M11.0292 25.8229C11.7241 25.7425 12.0928 25.8527 12.5069 25.9749C12.7527 26.0471 13.3128 26.2087 13.5661 26.3219C14.3258 26.6623 14.5083 26.6631 15.4281 26.6623L20.2031 26.6899C20.5092 26.678 20.7692 26.4642 20.8407 26.167L22.1128 20.6561C22.1687 20.4245 22.1002 20.2003 21.9586 20.0417C21.9028 19.9784 20.6962 19.0779 20.6962 19.0779L20.615 19.1263L11.1938 24.3817L8.37695 25.8371" fill="#141B26"/>
<path d="M20.1287 18.8826L7.44378 20.4854C7.17266 20.5189 6.94773 20.7111 6.87101 20.9733L5.64877 25.0548C5.51843 25.5032 5.86551 25.9471 6.33251 25.9293L13.9624 25.781L15.5526 25.7133L18.9608 25.609C19.2662 25.5971 19.5269 25.3833 19.5984 25.0861L20.5652 21.0373L20.5547 21.0492L20.878 19.7227C20.9897 19.2572 20.6032 18.8237 20.1287 18.8826Z" fill="#F1EFED"/>
<path d="M6.88926 21.6919L8.03106 20.6708L18.9247 19.4597L20.2028 20.5017L19.0983 25.0257L13.5509 25.1806L12.2542 25.0324H10.6171L7.26613 25.2283L6.37683 25.565L5.87109 25.2909L6.88926 21.6919Z" fill="#18202D"/>
<path d="M35.682 26.9414C35.6761 26.7671 35.6671 26.5935 35.6552 26.42C35.6545 26.4096 35.6537 26.3991 35.653 26.3887C35.4891 24.0135 34.8039 21.7068 33.645 19.634C33.6368 19.6198 33.6286 19.6049 33.6211 19.5908C33.5399 19.4463 33.4558 19.3033 33.3701 19.1618C33.3582 19.1417 33.3455 19.1216 33.3336 19.1015C33.251 18.9659 33.1661 18.8311 33.0789 18.6978C33.0685 18.6814 33.0573 18.665 33.0469 18.6486C32.9851 18.5548 32.9217 18.4624 32.8577 18.37C32.7981 18.2829 32.737 18.1965 32.676 18.1116C32.6261 18.0416 32.5754 17.9723 32.524 17.903C32.4667 17.8256 32.4086 17.7496 32.3497 17.6729C32.2909 17.5969 32.2328 17.5202 32.1725 17.445C32.1233 17.3832 32.0727 17.3221 32.0228 17.261C31.9513 17.1739 31.8798 17.0867 31.8068 17.0011C31.774 16.9623 31.7397 16.9251 31.707 16.8871C30.9189 15.9851 30.0334 15.1718 29.0659 14.4642C29.0562 14.4575 29.0472 14.4508 29.0375 14.4434C28.9102 14.351 28.7813 14.2602 28.651 14.1715C28.6264 14.1551 28.6026 14.138 28.578 14.1216C28.4588 14.0412 28.3389 13.9622 28.2175 13.8855C28.1788 13.8609 28.14 13.8364 28.1006 13.8118C27.9903 13.7425 27.8794 13.6747 27.7676 13.6084C27.7133 13.5764 27.6589 13.5451 27.6045 13.5139C27.5047 13.4558 27.4042 13.3992 27.3021 13.3433C27.2358 13.3068 27.1681 13.2718 27.101 13.236C27.0236 13.1958 26.9156 13.14 26.78 13.0699C26.4687 12.9135 19.9732 9.61326 17.5086 8.63234C16.2282 8.12289 15.6652 7.77655 14.5077 8.16981C12.4922 8.85504 5.83584 18.1377 4.58008 21.4789C4.85194 20.8734 12.1906 10.4378 13.8389 9.45015C14.1658 9.25426 14.6701 9.32651 15.3069 9.81659C16.1299 10.4489 17.0676 11.5043 18.3323 13.0483C18.5394 13.3016 18.7539 13.563 18.9721 13.8267C19.8033 14.8314 20.6368 15.9308 21.4635 17.1091C21.4784 17.1121 21.4933 17.1143 21.5082 17.1165L21.5045 17.1381C21.497 17.1366 21.4896 17.1359 21.4814 17.1344C23.1952 19.5796 24.8778 22.366 26.4448 25.3624C27.2522 26.9064 27.53 28.7222 27.2284 30.4755C26.8962 32.4031 25.8922 34.1609 24.3244 35.5589C23.7911 36.0341 23.2585 36.4996 22.7431 36.9487C20.0156 39.3276 17.6441 41.3811 16.9961 43.4561C17.8303 43.5872 18.6906 43.6565 19.5441 43.6565C21.7242 43.6565 23.8387 43.2297 25.8296 42.3873C26.0702 42.286 26.3071 42.1788 26.5417 42.0656C28.181 41.2775 29.6647 40.2236 30.9629 38.9262C32.2604 37.6287 33.3143 36.1443 34.1023 34.505C34.2148 34.2711 34.322 34.0335 34.424 33.7929C35.2657 31.802 35.6932 29.6875 35.6932 27.5074C35.6932 27.3316 35.6902 27.1559 35.6843 26.9801C35.6828 26.9674 35.6828 26.954 35.682 26.9414Z" fill="#18202D"/>
<path d="M7.25635 22.2742L6.33203 25.541L6.37598 25.5648L9.81925 25.4292L19.0974 25.0255L20.1461 20.7376L19.2918 20.042L8.39815 21.2531L7.25635 22.2742Z" fill="#9ED8D5"/>
<path d="M11.2377 25.8287C8.56303 25.7803 6.06344 25.2552 4.66616 24.7897C2.7654 24.1558 1.20948 24.45 0.397632 25.597C0.160782 25.9315 0.0282038 26.3299 0.00585938 26.7567L11.2377 25.8287Z" fill="url(#paint1_radial)"/>
<defs>
<radialGradient id="paint0_radial" cx="0" cy="0" r="1" gradientUnits="userSpaceOnUse" gradientTransform="translate(9.13713 21.576) scale(17.2026)">
<stop stop-color="#9ED8D5"/>
<stop offset="0.6229" stop-color="#585D6E"/>
</radialGradient>
<radialGradient id="paint1_radial" cx="0" cy="0" r="1" gradientUnits="userSpaceOnUse" gradientTransform="translate(9.13913 21.5758) scale(17.2026)">
<stop stop-color="#9ED8D5"/>
<stop offset="0.6229" stop-color="#585D6E"/>
</radialGradient>
</defs>
</svg>
